<svg width="135" height="46" viewBox="0 0 135 46" fill="none" xmlns="http://www.w3.org/2000/svg">
<rect width="135" height="46" fill="white"/>
<path d="M47.9268 21.36L45.6588 21.774C45.6768 19.002 44.8128 17.688 43.0488 17.688C41.4468 17.688 40.6728 18.444 40.6728 20.1C40.6728 21.36 41.2488 22.152 42.5628 22.512L44.3268 22.998C47.1168 23.772 48.1968 24.798 48.1968 26.634C48.1968 28.938 46.3608 30.18 43.2108 30.18C39.8268 30.18 38.1168 28.884 38.1168 26.274L40.3848 25.842C40.3848 28.74 41.1588 29.82 43.2648 29.82C45.0288 29.82 45.9648 28.992 45.9648 27.354C45.9648 25.932 45.4248 25.32 43.7508 24.87L41.7888 24.348C39.5208 23.754 38.4408 22.566 38.4408 20.748C38.4408 18.552 40.0968 17.4 43.0308 17.4C46.3068 17.4 47.9268 18.696 47.9268 21.36ZM49.9515 21.9H52.0215V30H49.9515V21.9ZM51.9135 17.328V19.938H50.0415V17.724L51.9135 17.328ZM56.0293 30H53.9593V21.9H55.8133L56.0293 24.132C56.4973 22.458 57.6133 21.72 58.9813 21.72C60.6913 21.72 61.6093 22.674 61.7893 24.294C62.1313 22.512 63.3193 21.72 64.8313 21.72C66.8473 21.72 67.9273 22.908 67.9273 25.23V30H65.8573V24.798C65.8573 22.98 65.3533 22.152 64.2193 22.152C62.6893 22.152 61.9693 23.718 61.9693 25.32V30H59.8993V24.834C59.8993 23.124 59.4673 22.26 58.3333 22.26C56.8033 22.26 56.0293 24.006 56.0293 25.644V30ZM73.9912 21.72C76.7452 21.72 78.4552 23.214 78.4552 25.95C78.4552 28.686 76.7452 30.18 73.9912 30.18C71.2552 30.18 69.5452 28.686 69.5452 25.95C69.5452 23.214 71.2552 21.72 73.9912 21.72ZM73.9912 22.008C72.4252 22.008 71.6332 23.232 71.6332 25.95C71.6332 28.668 72.4252 29.892 73.9912 29.892C75.5752 29.892 76.3672 28.668 76.3672 25.95C76.3672 23.232 75.5752 22.008 73.9912 22.008ZM80.1507 30V21.9H82.0047L82.2207 24.258C82.7427 22.638 83.8227 21.72 85.3527 21.72C87.3867 21.72 88.3587 22.8 88.3587 25.158V30H86.2887V25.446C86.2887 23.034 85.9107 22.224 84.7407 22.224C83.2827 22.224 82.2207 24.132 82.2207 26.04V30H80.1507ZM90.061 28.254C90.061 26.85 91.141 26.13 92.941 25.95L95.641 25.698V24.24C95.641 22.494 95.263 22.008 94.111 22.008C92.869 22.008 92.365 22.782 92.419 24.978L90.349 24.708C90.259 22.656 91.519 21.72 94.183 21.72C96.649 21.72 97.693 22.566 97.693 24.69V30H95.839L95.641 28.056C94.885 29.604 93.895 30.18 92.545 30.18C90.997 30.18 90.061 29.586 90.061 28.254ZM92.185 27.984C92.185 29.208 92.581 29.712 93.283 29.712C94.543 29.712 95.641 27.966 95.641 26.922V26.022L93.553 26.256C92.635 26.382 92.185 26.958 92.185 27.984ZM103.34 17.58H105.5V30H103.34V17.58ZM107.625 30V21.9H109.479L109.695 24.258C110.217 22.638 111.297 21.72 112.827 21.72C114.861 21.72 115.833 22.8 115.833 25.158V30H113.763V25.446C113.763 23.034 113.385 22.224 112.215 22.224C110.757 22.224 109.695 24.132 109.695 26.04V30H107.625ZM125.942 24.69L123.89 25.032C123.818 22.854 123.134 22.008 121.874 22.008C120.29 22.008 119.57 22.962 119.57 25.95C119.57 28.938 120.29 29.892 121.874 29.892C123.134 29.892 123.818 29.01 123.89 26.832L125.942 27.174C125.852 28.992 124.304 30.18 121.838 30.18C119.012 30.18 117.446 28.686 117.446 25.95C117.446 23.214 119.012 21.72 121.838 21.72C124.304 21.72 125.852 22.818 125.942 24.69Z" fill="black"/>
<path fill-rule="evenodd" clip-rule="evenodd" d="M10.727 27.6889H9C9.00345 27.1761 9.05135 26.5897 9.15613 25.9614C9.77954 22.2227 12.4165 17 19.6857 17H30.0476C30.0479 17.0399 30.0479 17.0802 30.0476 17.1209C30.0444 17.6041 30.0029 18.148 29.9128 18.7275C29.7516 19.7647 29.4348 20.9161 28.9039 22.0385H26.9516C27.591 20.9552 27.97 19.7817 28.1617 18.7275H19.6857C16.0073 18.7275 13.8577 20.2323 12.568 22.0194C11.6695 23.2645 11.1567 24.6976 10.9107 25.9614H19.3619C22.9953 25.9614 25.1333 24.5381 26.4225 22.8303H28.4893C26.9842 25.4359 24.2009 27.6889 19.3619 27.6889H10.727Z" fill="black"/>
<path fill-rule="evenodd" clip-rule="evenodd" d="M12.5981 30.9999H10.8711C10.8745 30.4872 10.9224 29.9008 11.0272 29.2724C11.1983 28.2463 11.5211 27.1084 12.0497 25.9974H14.0034C13.3698 27.0704 12.9849 28.2291 12.7818 29.2724H21.233C24.9775 29.2724 27.1337 27.7608 28.4094 25.9839C29.3038 24.7381 29.8029 23.3025 30.0328 22.0385H21.5568C17.9644 22.0385 15.8302 23.4738 14.531 25.2056H12.4657C13.9809 22.5847 16.7605 20.311 21.5568 20.311H31.9187C31.919 20.3509 31.919 20.3912 31.9187 20.432C31.9155 20.9152 31.8739 21.459 31.7839 22.0385C31.2027 25.7772 28.6008 30.9999 21.233 30.9999H12.5981Z" fill="black"/>
</svg>
