<svg width="1024" height="240" viewBox="0 0 1024 240" fill="none" xmlns="http://www.w3.org/2000/svg">
<g clip-path="url(#clip0_54_118)">
<path d="M360.621 183.051C350.921 183.051 341.904 181.846 333.57 179.438C325.237 177.029 317.132 173.025 309.254 167.426V134.711H328.297L331.422 155.902C334.872 158.376 339.104 160.362 344.117 161.859C349.195 163.357 354.697 164.105 360.621 164.105C366.415 164.105 371.266 163.292 375.172 161.664C379.143 159.971 382.171 157.628 384.254 154.633C386.337 151.638 387.379 148.09 387.379 143.988C387.379 140.212 386.467 136.859 384.645 133.93C382.822 131 379.794 128.396 375.562 126.117C371.331 123.773 365.602 121.625 358.375 119.672C347.763 116.807 338.876 113.422 331.715 109.516C324.618 105.609 319.247 100.922 315.602 95.4531C312.021 89.9844 310.23 83.5391 310.23 76.1172C310.23 68.5 312.281 61.7617 316.383 55.9023C320.549 50.043 326.311 45.4206 333.668 42.0352C341.025 38.6497 349.521 36.9245 359.156 36.8594C369.703 36.7292 379.013 38.0964 387.086 40.9609C395.224 43.8255 402.092 47.569 407.691 52.1914V82.7578H389.039L385.523 62.8359C382.854 60.9479 379.371 59.3529 375.074 58.0508C370.842 56.6836 365.829 56 360.035 56C355.087 56 350.725 56.8138 346.949 58.4414C343.173 60.069 340.211 62.3802 338.062 65.375C335.914 68.3047 334.84 71.8203 334.84 75.9219C334.84 79.5026 335.784 82.6276 337.672 85.2969C339.56 87.9661 342.717 90.4076 347.145 92.6211C351.572 94.7695 357.561 96.9505 365.113 99.1641C380.543 103.266 392.229 108.93 400.172 116.156C408.115 123.383 412.086 132.595 412.086 143.793C412.086 151.671 409.938 158.572 405.641 164.496C401.409 170.355 395.419 174.913 387.672 178.168C379.99 181.423 370.973 183.051 360.621 183.051ZM424.977 181V165.961L439.625 163.031V93.4023L424.098 90.4727V75.3359H464.234V163.031L478.785 165.961V181H424.977ZM438.648 51.4102V28.6562H464.234V51.4102H438.648ZM489.332 181V165.961L504.078 163.031V93.4023L488.551 90.4727V75.3359H526.637L527.809 89.2031C531.259 84.1901 535.556 80.3164 540.699 77.582C545.908 74.7826 551.93 73.3828 558.766 73.3828C565.667 73.3828 571.559 74.9453 576.441 78.0703C581.389 81.1302 585.133 85.7852 587.672 92.0352C590.927 86.2409 595.191 81.6836 600.465 78.3633C605.803 75.043 612.053 73.3828 619.215 73.3828C629.827 73.3828 638.16 76.9961 644.215 84.2227C650.335 91.4492 653.395 102.387 653.395 117.035V163.031L668.141 165.961V181H614.918V165.961L628.785 163.031V116.938C628.785 108.018 627.288 101.768 624.293 98.1875C621.298 94.6068 616.904 92.8164 611.109 92.8164C605.706 92.8164 601.246 94.5417 597.73 97.9922C594.28 101.443 592.034 105.837 590.992 111.176V163.031L604.371 165.961V181H553.102V165.961L566.48 163.031V116.938C566.48 108.344 564.951 102.191 561.891 98.4805C558.831 94.7044 554.404 92.8164 548.609 92.8164C543.792 92.8164 539.723 93.793 536.402 95.7461C533.147 97.6992 530.543 100.466 528.59 104.047V163.031L542.359 165.961V181H489.332ZM727.516 183.051C717.359 183.051 708.635 180.772 701.344 176.215C694.052 171.658 688.453 165.342 684.547 157.27C680.641 149.132 678.688 139.789 678.688 129.242V127.191C678.688 116.71 680.641 107.432 684.547 99.3594C688.453 91.2865 694.052 84.9388 701.344 80.3164C708.635 75.694 717.294 73.3828 727.32 73.3828C737.477 73.3828 746.201 75.694 753.492 80.3164C760.784 84.8737 766.383 91.1888 770.289 99.2617C774.195 107.335 776.148 116.645 776.148 127.191V129.242C776.148 139.789 774.195 149.132 770.289 157.27C766.383 165.342 760.784 171.658 753.492 176.215C746.266 180.772 737.607 183.051 727.516 183.051ZM727.516 164.105C732.984 164.105 737.477 162.641 740.992 159.711C744.573 156.716 747.242 152.615 749 147.406C750.758 142.133 751.637 136.078 751.637 129.242V127.191C751.637 120.421 750.758 114.431 749 109.223C747.242 104.014 744.573 99.9128 740.992 96.918C737.411 93.9232 732.854 92.4258 727.32 92.4258C721.917 92.4258 717.424 93.9232 713.844 96.918C710.263 99.9128 707.594 104.014 705.836 109.223C704.143 114.431 703.297 120.421 703.297 127.191V129.242C703.297 136.078 704.143 142.133 705.836 147.406C707.594 152.615 710.263 156.716 713.844 159.711C717.49 162.641 722.047 164.105 727.516 164.105ZM789.137 181V165.961L803.785 163.031V93.4023L788.355 90.4727V75.3359H826.441L827.711 90.668C831.227 85.1992 835.589 80.9674 840.797 77.9727C846.07 74.9128 852.027 73.3828 858.668 73.3828C869.54 73.3828 878.004 76.7357 884.059 83.4414C890.113 90.082 893.141 100.499 893.141 114.691V163.031L907.789 165.961V181H854.762V165.961L868.531 163.031V114.887C868.531 106.879 866.936 101.215 863.746 97.8945C860.556 94.5091 855.803 92.8164 849.488 92.8164C844.736 92.8164 840.569 93.8906 836.988 96.0391C833.473 98.1224 830.608 101.052 828.395 104.828V163.031L841.773 165.961V181H789.137ZM953.785 183.051C943.043 183.051 934.677 180.284 928.688 174.75C922.698 169.216 919.703 161.599 919.703 151.898C919.703 145.258 921.526 139.431 925.172 134.418C928.818 129.405 934.156 125.499 941.188 122.699C948.219 119.835 956.747 118.402 966.773 118.402H982.887V109.516C982.887 103.917 981.194 99.457 977.809 96.1367C974.488 92.8164 969.638 91.1562 963.258 91.1562C959.612 91.1562 956.389 91.612 953.59 92.5234C950.79 93.3698 948.284 94.6068 946.07 96.2344L943.824 110.492H925.758L925.562 84.418C930.771 81.0326 936.565 78.3633 942.945 76.4102C949.326 74.3919 956.422 73.3828 964.234 73.3828C977.646 73.3828 988.193 76.5404 995.875 82.8555C1003.62 89.1055 1007.5 98.0898 1007.5 109.809V156.391C1007.5 157.823 1007.5 159.223 1007.5 160.59C1007.56 161.957 1007.66 163.292 1007.79 164.594L1018.53 165.961V181H986.402C985.751 178.721 985.133 176.508 984.547 174.359C984.026 172.211 983.635 170.062 983.375 167.914C979.859 172.341 975.595 175.987 970.582 178.852C965.634 181.651 960.035 183.051 953.785 183.051ZM959.352 164.008C964.299 164.008 968.922 162.868 973.219 160.59C977.516 158.246 980.738 155.316 982.887 151.801V134.125H966.48C959.124 134.125 953.557 135.85 949.781 139.301C946.07 142.686 944.215 146.658 944.215 151.215C944.215 155.316 945.517 158.474 948.121 160.688C950.725 162.901 954.469 164.008 959.352 164.008Z" fill="black"/>
<path fill-rule="evenodd" clip-rule="evenodd" d="M18.134 159.234H0C0.0362395 153.85 0.539179 147.693 1.63937 141.095C8.18523 101.839 35.8734 47 112.201 47H221.002C221.005 47.4186 221.005 47.8418 221.002 48.2696C220.968 53.3434 220.532 59.0539 219.586 65.1388C217.894 76.0294 214.568 88.1193 208.993 99.9049H188.493C195.207 88.53 199.187 76.2077 201.2 65.1388H112.201C73.5775 65.1388 51.0066 80.9392 37.4641 99.7046C28.0295 112.778 22.6453 127.826 20.0629 141.095H108.801C146.952 141.095 169.402 126.151 182.937 108.219H204.639C188.835 135.578 159.611 159.234 108.801 159.234H18.134Z" fill="black"/>
<path fill-rule="evenodd" clip-rule="evenodd" d="M37.7786 194H19.6445C19.6808 188.617 20.1837 182.459 21.2839 175.861C23.0805 165.087 26.4697 153.139 32.02 141.473H52.5341C45.8807 152.74 41.8394 164.907 39.7074 175.861H128.445C167.763 175.861 190.404 159.99 203.798 141.332C213.189 128.251 218.43 113.176 220.845 99.9049H131.845C94.1248 99.9049 71.7153 114.975 58.0735 133.159H36.3876C52.2977 105.64 81.4843 81.7661 131.845 81.7661H240.646C240.649 82.1847 240.649 82.608 240.646 83.0358C240.612 88.1096 240.176 93.82 239.231 99.9049C233.128 139.161 205.808 194 128.445 194H37.7786Z" fill="black"/>
</g>
<defs>
<clipPath id="clip0_54_118">
<rect width="1024" height="240" fill="white"/>
</clipPath>
</defs>
</svg>
