<svg width="1024" height="240" viewBox="0 0 1024 240" fill="none" xmlns="http://www.w3.org/2000/svg">
<g clip-path="url(#clip0_54_118)">
<path d="M333.556 99L314.656 102.45C314.806 79.35 307.606 68.4 292.906 68.4C279.556 68.4 273.106 74.7 273.106 88.5C273.106 99 277.906 105.6 288.856 108.6L303.556 112.65C326.806 119.1 335.806 127.65 335.806 142.95C335.806 162.15 320.506 172.5 294.256 172.5C266.056 172.5 251.806 161.7 251.806 139.95L270.706 136.35C270.706 160.5 277.156 169.5 294.706 169.5C309.406 169.5 317.206 162.6 317.206 148.95C317.206 137.1 312.706 132 298.756 128.25L282.406 123.9C263.506 118.95 254.506 109.05 254.506 93.9C254.506 75.6 268.306 66 292.756 66C320.056 66 333.556 76.8 333.556 99ZM350.429 103.5H367.679V171H350.429V103.5ZM366.779 65.4V87.15H351.179V68.7L366.779 65.4ZM401.078 171H383.828V103.5H399.278L401.078 122.1C404.978 108.15 414.278 102 425.678 102C439.928 102 447.578 109.95 449.078 123.45C451.928 108.6 461.828 102 474.428 102C491.228 102 500.228 111.9 500.228 131.25V171H482.978V127.65C482.978 112.5 478.778 105.6 469.328 105.6C456.578 105.6 450.578 118.65 450.578 132V171H433.328V127.95C433.328 113.7 429.728 106.5 420.278 106.5C407.528 106.5 401.078 121.05 401.078 134.7V171ZM550.76 102C573.71 102 587.96 114.45 587.96 137.25C587.96 160.05 573.71 172.5 550.76 172.5C527.96 172.5 513.71 160.05 513.71 137.25C513.71 114.45 527.96 102 550.76 102ZM550.76 104.4C537.71 104.4 531.11 114.6 531.11 137.25C531.11 159.9 537.71 170.1 550.76 170.1C563.96 170.1 570.56 159.9 570.56 137.25C570.56 114.6 563.96 104.4 550.76 104.4ZM602.089 171V103.5H617.539L619.339 123.15C623.689 109.65 632.689 102 645.439 102C662.389 102 670.489 111 670.489 130.65V171H653.239V133.05C653.239 112.95 650.089 106.2 640.339 106.2C628.189 106.2 619.339 122.1 619.339 138V171H602.089ZM684.675 156.45C684.675 144.75 693.675 138.75 708.675 137.25L731.175 135.15V123C731.175 108.45 728.025 104.4 718.425 104.4C708.075 104.4 703.875 110.85 704.325 129.15L687.075 126.9C686.325 109.8 696.825 102 719.025 102C739.575 102 748.275 109.05 748.275 126.75V171H732.825L731.175 154.8C724.875 167.7 716.625 172.5 705.375 172.5C692.475 172.5 684.675 167.55 684.675 156.45ZM702.375 154.2C702.375 164.4 705.675 168.6 711.525 168.6C722.025 168.6 731.175 154.05 731.175 145.35V137.85L713.775 139.8C706.125 140.85 702.375 145.65 702.375 154.2ZM795.337 67.5H813.337V171H795.337V67.5ZM831.044 171V103.5H846.494L848.294 123.15C852.644 109.65 861.644 102 874.394 102C891.344 102 899.444 111 899.444 130.65V171H882.194V133.05C882.194 112.95 879.044 106.2 869.294 106.2C857.144 106.2 848.294 122.1 848.294 138V171H831.044ZM983.68 126.75L966.58 129.6C965.98 111.45 960.28 104.4 949.78 104.4C936.58 104.4 930.58 112.35 930.58 137.25C930.58 162.15 936.58 170.1 949.78 170.1C960.28 170.1 965.98 162.75 966.58 144.6L983.68 147.45C982.93 162.6 970.03 172.5 949.48 172.5C925.93 172.5 912.88 160.05 912.88 137.25C912.88 114.45 925.93 102 949.48 102C970.03 102 982.93 111.15 983.68 126.75Z" fill="white"/>
<path fill-rule="evenodd" clip-rule="evenodd" d="M40.5639 148.949H27C27.0271 144.922 27.4033 140.316 28.2262 135.381C33.1224 106.019 53.8326 65 110.924 65H192.305C192.307 65.3131 192.307 65.6297 192.305 65.9496C192.28 69.7447 191.953 74.0161 191.246 78.5675C189.98 86.7134 187.492 95.7564 183.323 104.572H167.989C173.011 96.0636 175.987 86.8467 177.494 78.5675H110.924C82.0345 78.5675 65.1519 90.3859 55.0224 104.422C47.9655 114.2 43.9382 125.456 42.0066 135.381H108.381C136.917 135.381 153.709 124.203 163.833 110.79H180.066C168.245 131.254 146.386 148.949 108.381 148.949H40.5639Z" fill="white"/>
<path fill-rule="evenodd" clip-rule="evenodd" d="M55.2572 174.953H41.6934C41.7205 170.926 42.0966 166.321 42.9196 161.386C44.2634 153.326 46.7984 144.39 50.9499 135.664H66.2941C61.3175 144.092 58.2947 153.192 56.7 161.386H123.074C152.483 161.386 169.418 149.514 179.437 135.558C186.461 125.774 190.381 114.499 192.187 104.572H125.617C97.4031 104.572 80.6412 115.844 70.4374 129.445H54.2169C66.1172 108.861 87.9482 91.0043 125.617 91.0043H206.998C207.001 91.3173 207.001 91.634 206.998 91.9539C206.973 95.749 206.647 100.02 205.939 104.572C201.375 133.935 180.94 174.953 123.074 174.953H55.2572Z" fill="white"/>
</g>
<defs>
<clipPath id="clip0_54_118">
<rect width="1024" height="240" fill="white"/>
</clipPath>
</defs>
</svg>
